<?xml version="1.0" encoding="utf-8"?><svg version="1.1" id="Layer_1" xmlns="http://www.w3.org/2000/svg" xmlns:xlink="http://www.w3.org/1999/xlink" x="0px" y="0px" viewBox="0 0 72.54 122.88" style="enable-background:new 0 0 72.54 122.88" xml:space="preserve"><style type="text/css">.st0{fill-rule:evenodd;clip-rule:evenodd;fill:#96223B;} .st1{fill-rule:evenodd;clip-rule:evenodd;fill:#EECD65;} .st2{fill-rule:evenodd;clip-rule:evenodd;fill:#FFE2CF;} .st3{fill-rule:evenodd;clip-rule:evenodd;fill:#F7D569;} .st4{fill-rule:evenodd;clip-rule:evenodd;fill:#E6A10A;} .st5{fill-rule:evenodd;clip-rule:evenodd;}</style><g><path class="st0" d="M27.51,37.35c-0.86,0.01-1.49-0.37-1.94-1.06c-0.85-1.3-0.77-2.72-0.77-4.2V10.14c0-0.44-0.36-0.81-0.81-0.81 H12.61c-0.44,0-0.81,0.37-0.81,0.81v20.15v2.09c0,1.34,0.08,2.32-0.64,3.54c-0.5,0.84-1.25,1.43-2.22,1.82 c-2.07,0.87-3.75,2.15-5.07,3.86c-1.36,1.75-2.33,3.95-2.93,6.56V88v27.5c-0.13,3.06,0.89,5.03,3.01,5.95 c1.24,0.53,2.02,0.49,3.31,0.49h19.37c1.43,0,2.77,0.06,4.19-0.19c3.57-0.63,4.87-2.52,4.93-5.77v-66.8 C35.39,42.99,31.81,39.83,27.51,37.35L27.51,37.35L27.51,37.35z"/><path d="M27.25,38.27c-0.49-0.03-0.92-0.16-1.31-0.38c-0.45-0.25-0.83-0.62-1.14-1.1h0c-0.94-1.43-0.93-2.87-0.92-4.37l0-0.34h0 V10.27H12.74v22.1h0l0,0.35c0.01,1.3,0.01,2.33-0.77,3.66l0,0.01c-0.31,0.52-0.69,0.96-1.15,1.33c-0.44,0.36-0.94,0.65-1.51,0.87 l0,0C8.35,39,7.48,39.5,6.7,40.09h0c-0.78,0.59-1.47,1.28-2.08,2.07v0c-0.64,0.83-1.19,1.75-1.64,2.76c-0.45,1-0.81,2.11-1.09,3.32 v67.26l0,0.04c-0.06,1.36,0.13,2.47,0.56,3.32c0.4,0.79,1.03,1.37,1.88,1.74c0.98,0.42,1.65,0.41,2.67,0.41l0.28,0v0h19.37 c0.3,0,0.2,0,0.7,0.01c1.12,0.01,2.2,0.02,3.32-0.18c1.55-0.28,2.58-0.79,3.22-1.57c0.63-0.78,0.91-1.87,0.95-3.28h0v-66.8 c-0.18-2.85-1.09-5.01-2.45-6.73C31.04,40.75,29.23,39.44,27.25,38.27L27.25,38.27z M26.85,36.26c0.18,0.1,0.4,0.15,0.66,0.15 l0.48,0.12c2.24,1.29,4.29,2.77,5.86,4.76c1.59,2.02,2.66,4.52,2.86,7.83l0,0.05v66.8l0,0.02c-0.04,1.83-0.44,3.3-1.36,4.44 c-0.93,1.14-2.33,1.88-4.34,2.24c-1.25,0.22-2.43,0.21-3.65,0.2l-20.07,0v0l-0.28,0c-1.25,0-2.08,0-3.4-0.56l0,0 c-1.27-0.55-2.22-1.42-2.82-2.61c-0.57-1.13-0.83-2.52-0.76-4.2l0-67.36l0.03-0.21c0.31-1.35,0.72-2.61,1.24-3.77 c0.52-1.17,1.14-2.23,1.86-3.16c0.71-0.91,1.52-1.71,2.43-2.41c0.91-0.7,1.92-1.28,3.02-1.74l0.02,0c0.39-0.16,0.74-0.35,1.03-0.59 c0.29-0.23,0.53-0.51,0.72-0.84c0.52-0.89,0.52-1.69,0.51-2.7l0-0.36h0V10.14c0-0.48,0.2-0.92,0.51-1.23 c0.32-0.32,0.75-0.51,1.23-0.51H24c0.48,0,0.92,0.2,1.23,0.51c0.32,0.32,0.51,0.75,0.51,1.23v21.95h0l0,0.35 c-0.01,1.21-0.01,2.36,0.62,3.33l0,0C26.5,35.99,26.66,36.16,26.85,36.26L26.85,36.26z"/><path class="st1" d="M24.85,27.26V10.14c0-0.44-0.37-0.81-0.81-0.81H12.66c-0.44,0-0.81,0.37-0.81,0.81v17.12H24.85L24.85,27.26z"/><path d="M23.91,26.32V10.27H12.79v16.05H23.91L23.91,26.32z M25.79,10.14v18.06H10.91V10.14c0-0.48,0.2-0.91,0.51-1.23v0 c0.32-0.32,0.75-0.51,1.23-0.51h11.38c0.48,0,0.91,0.2,1.23,0.51l0,0C25.59,9.23,25.79,9.66,25.79,10.14L25.79,10.14z"/><path class="st2" d="M13.92,56.21h19.82v42.42H13.92c-1.32,0-2.39-1.08-2.39-2.39V58.6C11.53,57.29,12.6,56.21,13.92,56.21 L13.92,56.21L13.92,56.21z"/><path d="M14.54,0h7.88c1.02,0,1.95,0.42,2.62,1.09l0,0l0,0c0.67,0.67,1.09,1.6,1.09,2.63v5.86c0,1.04-0.84,1.88-1.88,1.88H12.7 c-1.04,0-1.88-0.84-1.88-1.88V3.72c0-1.02,0.42-1.95,1.09-2.62l0,0l0,0C12.59,0.42,13.52,0,14.54,0L14.54,0z M22.38,3.76h-7.8V7.7 h7.8V3.76L22.38,3.76z"/><path class="st3" d="M14.54,1.88h7.88c1.01,0,1.84,0.83,1.84,1.84v5.86H12.7V3.72C12.7,2.71,13.53,1.88,14.54,1.88L14.54,1.88z"/><path d="M12.33,5.49h12.3c0.83,0,1.59,0.34,2.14,0.89c0.55,0.55,0.89,1.31,0.89,2.14v3.42c0,0.83-0.34,1.58-0.89,2.13l-0.01,0.01 c-0.55,0.55-1.3,0.88-2.13,0.88h-12.3c-0.83,0-1.59-0.34-2.14-0.89c-0.55-0.55-0.89-1.31-0.89-2.14V8.52 c0-0.83,0.34-1.58,0.89-2.13l0.01-0.01C10.74,5.83,11.5,5.49,12.33,5.49L12.33,5.49z M23.9,9.25H13.06v1.96H23.9V9.25L23.9,9.25z"/><path class="st4" d="M12.33,7.37h12.3c0.63,0,1.15,0.52,1.15,1.15v3.42c0,0.63-0.52,1.15-1.15,1.15h-12.3 c-0.63,0-1.15-0.52-1.15-1.15V8.52C11.18,7.89,11.7,7.37,12.33,7.37L12.33,7.37z"/><path class="st5" d="M50.19,80.07l-0.01,0c0.37-3.61,1.04-7.6,1.81-11.83c0.68-3.74,0.69-3.74,3.39-3.72 c0.5,0.01,1.06,0.01,1.63,0.01l8.95-0.07c0.46,0.03,0.82,0.16,1.09,0.37c0.28,0.21,0.49,0.53,0.65,0.95 c0.22,1.27,0.48,2.66,0.76,4.12c0.56,2.92,1.17,6.11,1.54,9.29l0.13,0.12c1.79,8.23,0.25,16.23-7.3,18.45 c-3.31,0.97-7.21,0.41-9.62-2.16c-1.18-1.26-2.08-2.95-2.52-5.09c-0.43-2.09-0.6-4.53-0.58-7.31 C50.11,82.21,50.14,81.16,50.19,80.07L50.19,80.07z M72.33,80.11c0.57,6.06,0.14,12.07-3.24,16.39c-1.22,1.56-2.76,2.68-4.62,3.34 c-0.85,0.3-1.76,0.5-2.74,0.61l0.01,15.26l6.55-0.07c0.88-0.01,1.6,0.69,1.61,1.57c0.01,0.88-0.69,1.6-1.57,1.61l-16.36,0.18 c-0.88,0.01-1.6-0.69-1.61-1.57c-0.01-0.88,0.69-1.6,1.57-1.61l6.62-0.08l-0.01-15.29c-0.12-0.01-0.24-0.02-0.36-0.04 c-0.02,0-0.04,0-0.06-0.01c-6.57-0.74-9.45-4.71-10.26-10.79c-0.76-5.7,0.38-13.28,1.92-21.77c1.02-5.59,1.04-5.59,5.59-5.55 c0.44,0.01,0.95,0.01,1.59,0l8.97-0.07l0,0c0.02,0,0.05,0,0.07,0c0.95,0.05,1.74,0.34,2.38,0.84c0.19,0.15,0.37,0.31,0.53,0.49 C70.37,69.07,71.42,74.59,72.33,80.11L72.33,80.11z"/><path class="st0" d="M70.03,79.3c-5.86-3.51-13.16,0.14-19.84,0.76c-0.05,1.09-0.08,2.14-0.09,3.14c-0.02,2.78,0.15,5.22,0.58,7.31 c0.44,2.14,1.34,3.84,2.53,5.1c2.42,2.57,6.32,3.13,9.63,2.16c7.56-2.22,9.1-10.22,7.31-18.46l-0.13-0.13L70.03,79.3L70.03,79.3 L70.03,79.3z M67.41,85.32c-0.02-0.35,0.25-0.65,0.6-0.67c0.35-0.02,0.65,0.25,0.67,0.6c0.14,2.47-0.29,4.56-1.24,6.3 c-0.95,1.75-2.4,3.14-4.28,4.22c-0.3,0.17-0.7,0.07-0.87-0.23c-0.17-0.3-0.07-0.7,0.23-0.87c1.68-0.96,2.97-2.19,3.8-3.72 C67.16,89.41,67.54,87.55,67.41,85.32L67.41,85.32L67.41,85.32z"/></g></svg>